<?xml version="1.0" standalone="no"?>
  <!DOCTYPE svg PUBLIC "-//W3C//DTD SVG 1.1//EN" "http://www.w3.org/Graphics/SVG/1.1/DTD/svg11.dtd" >
  <svg>
  <metadata>
  Created by font-carrier
  </metadata>
  <defs>
  <font id="vapfont" horiz-adv-x="1312" vert-adv-y="1312" >
    <font-face
      
      font-family="vapfont"
      
      font-weight="400"
      
      font-stretch="normal"
      
      units-per-em="1024"
      
      ascent="991"
      
      descent="-256"
      
    />
      <missing-glyph />

      

      
      <glyph glyph-name="uni22" unicode="&#x22;" d="M52 768L148 768L148 654L121 516L80 516L52 654L52 768M215 768L311 768L311 654L284 516L243 516L215 654L215 768Z"  horiz-adv-x="363" vert-adv-y="1024"  />

      
      <glyph glyph-name="uni27" unicode="&#x27;" d="M50 768L146 768L146 654L119 516L78 516L50 654L50 768Z"  horiz-adv-x="195" vert-adv-y="1024"  />

      
      <glyph glyph-name="uni28" unicode="&#x28;" d="M256 774L256 697L228 697Q198 697 179.50 682Q161 667 153.50 636.50Q146 606 144.50 586.50Q143 567 143 534L143 87Q143 54 144.50 34Q146 14 153.50-16Q161-46 180-61.50Q199-77 228-77L256-77L256-154L228-154Q174-154 138-135.50Q102-117 85.50-80.50Q69-44 62.50-5.50Q56 33 56 87L56 534Q56 588 62.50 626.50Q69 665 85.50 701Q102 737 138 755.50Q174 774 228 774L256 774Z"  horiz-adv-x="319" vert-adv-y="1024"  />

      
      <glyph glyph-name="uni29" unicode="&#x29;" d="M63 697L63 774L91 774Q145 774 181 755.50Q217 737 234 701Q251 665 257 626.50Q263 588 263 534L263 87Q263 33 257-5.50Q251-44 234-80.50Q217-117 181-135.50Q145-154 91-154L63-154L63-77L91-77Q121-77 140-61.50Q159-46 166-16Q173 14 174.50 34Q176 54 176 87L176 534Q176 568 174.50 587Q173 606 166 636.50Q159 667 140 682Q121 697 91 697L63 697Z"  horiz-adv-x="319" vert-adv-y="1024"  />

      
      <glyph glyph-name="uni2a" unicode="&#x2a;" d="M558 603L400 546L495 412L450 378L354 516L252 378L207 412L305 546L148 605L168 660L326 602L326 768L382 768L382 602L539 660L558 603Z"  horiz-adv-x="706" vert-adv-y="1024"  />

      
      <glyph glyph-name="uni2b" unicode="&#x2b;" d="M261 538L338 538L338 329L547 329L547 252L338 252L338 42L261 42L261 252L51 252L51 329L261 329L261 538Z"  horiz-adv-x="598" vert-adv-y="1024"  />

      
      <glyph glyph-name="uni2c" unicode="&#x2c;" d="M163 0L124 0L124 104L215 104L215-19Q215-66 199-90.50Q183-115 136-115L113-115L113-69Q142-68 152.50-57.50Q163-47 163-19L163 0Z"  horiz-adv-x="353" vert-adv-y="1024"  />

      
      <glyph glyph-name="uni2d" unicode="&#x2d;" d="M0 318L267 318L267 242L0 242L0 318Z"  horiz-adv-x="267" vert-adv-y="1024"  />

      
      <glyph glyph-name="uni2e" unicode="&#x2e;" d="M204 104L204 0L113 0L113 104L204 104Z"  horiz-adv-x="353" vert-adv-y="1024"  />

      
      <glyph glyph-name="uni2f" unicode="&#x2f;" d="M716 768L122-116L29-116L621 768L716 768Z"  horiz-adv-x="744" vert-adv-y="1024"  />

      
      <glyph glyph-name="uni30" unicode="&#x30;" d="M352 697Q313 697 294 696.50Q275 696 246.50 694.50Q218 693 206 689.50Q194 686 176 679.50Q158 673 150.50 662.50Q143 652 134 638Q125 624 122 603Q119 582 116.50 556Q114 530 114 497L114 271Q114 237 116.50 211.50Q119 186 122 165Q125 144 134 130Q143 116 150.50 105.50Q158 95 176 88.50Q194 82 206 78.50Q218 75 246.50 73.50Q275 72 294 71.50Q313 71 352 71Q388 71 405.50 71Q423 71 450 72.50Q477 74 489 76.50Q501 79 519.50 84Q538 89 545 96Q552 103 562.50 114.50Q573 126 577 140.50Q581 155 586 174.50Q591 194 592 217.50Q593 241 593 271L593 497Q593 528 592 551Q591 574 586 593.50Q581 613 577 627.50Q573 642 562.50 653.50Q552 665 545 672Q538 679 519.50 684Q501 689 489 691.50Q477 694 450 695.50Q423 697 405.50 697Q388 697 352 697M354-6Q256-6 201 2.50Q146 11 103.50 40.50Q61 70 45 124.50Q29 179 27 271L27 497Q29 572 41 620.50Q53 669 74 700Q95 731 137 747Q179 763 226.50 768.50Q274 774 352 774Q450 774 505 765.50Q560 757 602.50 727.50Q645 698 661.50 643.50Q678 589 680 497L680 271Q678 196 665.50 147.50Q653 99 632 68Q611 37 569 21Q527 5 479.50-0.50Q432-6 354-6Z"  horiz-adv-x="706" vert-adv-y="1024"  />

      
      <glyph glyph-name="uni31" unicode="&#x31;" d="M459 768L459 0L372 0L372 701L175 485L121 538L333 768L459 768Z"  horiz-adv-x="706" vert-adv-y="1024"  />

      
      <glyph glyph-name="uni32" unicode="&#x32;" d="M627 77L627 0L74 0L74 130Q74 167 77.50 196Q81 225 90.50 247.50Q100 270 110 286Q120 302 140 314Q160 326 176.50 333Q193 340 224 346Q255 352 278 355Q301 358 343 362Q457 373 480 382Q523 396 535 442Q542 473 542 531Q542 572 539.50 599Q537 626 527 645.50Q517 665 507 674.50Q497 684 473 689.50Q449 695 426 696Q403 697 361 697Q310 697 281.50 696Q253 695 227.50 689Q202 683 190.50 674.50Q179 666 171 647Q163 628 161.50 605.50Q160 583 161 545L161 505L74 505L74 545Q74 592 76.50 620.50Q79 649 89 678.50Q99 708 117.50 723Q136 738 168.50 751.50Q201 765 248 769.50Q295 774 361 774Q516 774 572.50 725Q629 676 629 531Q629 470 619 429Q609 388 591.50 361.50Q574 335 539.50 320Q505 305 466.50 298Q428 291 364 286Q238 276 199.50 250Q161 224 161 142L161 77L627 77Z"  horiz-adv-x="706" vert-adv-y="1024"  />

      
      <glyph glyph-name="uni33" unicode="&#x33;" d="M282 355L282 432L373 432Q459 434 481 442Q521 458 527 525Q528 540 528 559Q528 600 524 622.50Q520 645 511 662Q502 679 477 685.50Q452 692 420 694.50Q388 697 329 697Q217 697 188.50 675.50Q160 654 157 565L157 532L70 532L70 565Q70 614 77 649Q84 684 101 707Q118 730 137.50 743.50Q157 757 191.50 763.50Q226 770 257.50 772Q289 774 340 774Q374 774 388 773.50Q402 773 431 772Q460 771 472 768.50Q484 766 506.50 761.50Q529 757 539.50 749Q550 741 565.50 730.50Q581 720 587.50 705.50Q594 691 602 672Q610 653 612.50 628.50Q615 604 615 574Q615 488 590.50 444.50Q566 401 488 395L488 393Q572 387 601.50 346.50Q631 306 631 217Q631 151 616.50 108Q602 65 583.50 41.50Q565 18 521.50 7.50Q478-3 447.50-4.50Q417-6 350-6Q338-6 332-6Q259-6 213.50 0.50Q168 7 129.50 28Q91 49 74.50 90.50Q58 132 59 198L59 249L146 249L146 198Q146 110 175.50 91.50Q205 73 332 71Q379 73 412.50 71Q446 69 470 76Q494 83 508 90Q522 97 530.50 117Q539 137 541.50 161Q544 185 544 226Q544 254 539.50 274.50Q535 295 529.50 309Q524 323 510.50 332Q497 341 487 345.50Q477 350 454 352Q431 354 417 354.50Q403 355 373 355L282 355Z"  horiz-adv-x="706" vert-adv-y="1024"  />

      
      <glyph glyph-name="uni34" unicode="&#x34;" d="M550 768L550 252L662 252L662 175L550 175L550 0L463 0L463 175L31 175L31 279L417 768L550 768M463 252L463 712L461 712L102 252L463 252Z"  horiz-adv-x="706" vert-adv-y="1024"  />

      
      <glyph glyph-name="uni35" unicode="&#x35;" d="M170 691L170 462L172 462Q210 525 379 525Q449 525 498 511.50Q547 498 573.50 477.50Q600 457 615 420.50Q630 384 633.50 350.50Q637 317 637 266Q637 204 632.50 162.50Q628 121 614.50 89Q601 57 583 40Q565 23 530.50 11.50Q496 0 456.50-3Q417-6 354-6Q269-6 222.50 0Q176 6 139.50 28Q103 50 89 90.50Q75 131 71 202L70 220L158 220L158 195Q158 159 166 136Q174 113 186.50 99.50Q199 86 227 80Q255 74 280 72.50Q305 71 354 71Q401 71 431.50 73.50Q462 76 485 84.50Q508 93 519.50 105Q531 117 539 141.50Q547 166 548.50 193Q550 220 550 266Q550 331 543.50 364.50Q537 398 513 418.50Q489 439 455.50 444Q422 449 354 449Q349 449 326 449.50Q303 450 292.50 449.50Q282 449 261 447Q240 445 228.50 440.50Q217 436 202.50 428.50Q188 421 180.50 408.50Q173 396 170 379L83 379L83 768L605 768L605 691L170 691Z"  horiz-adv-x="706" vert-adv-y="1024"  />

      
      <glyph glyph-name="uni36" unicode="&#x36;" d="M372 398Q325 398 296.50 397Q268 396 241 391.50Q214 387 200 378.50Q186 370 174.50 355Q163 340 159.50 318.50Q156 297 156 265Q156 219 157.50 192.50Q159 166 166.50 141.50Q174 117 186 105Q198 93 221.50 84.50Q245 76 275 73.50Q305 71 353 71Q390 71 416 72Q442 73 464 77.50Q486 82 499.50 86Q513 90 523.50 101Q534 112 539 121.50Q544 131 547 151Q550 171 550.50 188Q551 205 551 234Q551 293 547 321.50Q543 350 522.50 370Q502 390 470 394Q438 398 372 398M69 265L69 569Q70 622 83 660Q96 698 118.50 720Q141 742 179.50 754.50Q218 767 258 770.50Q298 774 357 774Q386 774 400 774Q414 774 441 772.50Q468 771 482.50 768Q497 765 519 759Q541 753 553 744.50Q565 736 580 722.50Q595 709 602.50 692Q610 675 615.50 651Q621 627 621 598L621 573L534 573L534 595Q534 614 531 628.50Q528 643 521.50 654Q515 665 509 672.50Q503 680 488.50 684.50Q474 689 464.50 691.50Q455 694 433.50 695.50Q412 697 398.50 697Q385 697 357 697Q327 697 317 697Q307 697 283.50 696.50Q260 696 252.50 694Q245 692 227.50 689.50Q210 687 205 682.50Q200 678 188.50 671Q177 664 173.50 654.50Q170 645 165 633Q160 621 158 605Q156 589 156 569L156 404L158 404Q187 475 353 475Q423 475 465.50 470.50Q508 466 545 452.50Q582 439 600 412Q618 385 628 342.50Q638 300 638 234Q638 155 625 109Q612 63 576.50 36.50Q541 10 490.50 2Q440-6 353-6Q283-6 240.50-0.50Q198 5 161.50 20.50Q125 36 106.50 66.50Q88 97 78.50 144.50Q69 192 69 265Z"  horiz-adv-x="706" vert-adv-y="1024"  />

      
      <glyph glyph-name="uni37" unicode="&#x37;" d="M625 768L625 658L252 0L150 0L553 696L65 696L65 768L625 768Z"  horiz-adv-x="706" vert-adv-y="1024"  />

      
      <glyph glyph-name="uni38" unicode="&#x38;" d="M200 398L200 400Q124 413 100.50 449.50Q77 486 77 575Q77 616 83 646.50Q89 677 98.50 698.50Q108 720 127 734Q146 748 164 756Q182 764 216 768Q250 772 278 773Q306 774 353 774Q400 774 427 773Q454 772 488 768.50Q522 765 540 757Q558 749 578.50 734.50Q599 720 608.50 699Q618 678 624.50 647Q631 616 631 575Q631 533 627.50 508Q624 483 612 458.50Q600 434 575 420.50Q550 407 509 399L509 398Q586 386 613 346Q640 306 640 212Q640 137 627.50 95Q615 53 579 29.50Q543 6 493.50 0Q444-6 353-6Q218-6 173 7Q98 30 77 111Q67 152 67 212Q67 305 90.50 345Q114 385 200 398M164 575Q164 526 168 503Q172 480 192 461.50Q212 443 248.50 438.50Q285 434 353.50 434Q422 434 457.50 438Q493 442 514 459.50Q535 477 539.50 501Q544 525 544 575Q544 619 540 639.50Q536 660 515 675Q494 690 458.50 693.50Q423 697 353 697Q306 697 278 696Q250 695 226.50 689.50Q203 684 192 677.50Q181 671 174 655.50Q167 640 165.50 623Q164 606 164 575M154 212Q154 177 155 158Q156 139 163.50 121Q171 103 182 95.50Q193 88 218 81.50Q243 75 272.50 73.50Q302 72 353 71Q479 69 516 95.50Q553 122 553 212Q553 263 547.50 289Q542 315 519 332Q496 349 460 353Q424 357 353.50 357Q283 357 249 354Q215 351 190.50 335Q166 319 160 292Q154 265 154 212Z"  horiz-adv-x="706" vert-adv-y="1024"  />

      
      <glyph glyph-name="uni39" unicode="&#x39;" d="M357 375Q406 375 434 376Q462 377 487 383Q512 389 523 398Q534 407 542.50 426Q551 445 553 468.50Q555 492 555 530Q555 562 553.50 584.50Q552 607 545.50 625Q539 643 533 655Q527 667 513 675Q499 683 487.50 687.50Q476 692 452.50 694Q429 696 410.50 696.50Q392 697 357 697Q306 697 281 696Q256 695 229 689.50Q202 684 192 675Q182 666 173 645.50Q164 625 162.50 599Q161 573 161 530Q161 492 163.50 468Q166 444 175 425.50Q184 407 195.50 398Q207 389 232 383Q257 377 283.50 376Q310 375 357 375M65 167L65 196L152 196L152 167Q152 102 188.50 86.50Q225 71 357 71Q404 71 429 72Q454 73 480.50 78.50Q507 84 517.50 93.50Q528 103 539 122.50Q550 142 552.50 169Q555 196 555 237L555 365L553 367Q521 296 364 298Q360 298 357 298Q270 298 221.50 305Q173 312 136.50 337Q100 362 87 407.50Q74 453 74 530Q74 595 82.50 637Q91 679 109 707Q127 735 162.50 749.50Q198 764 242 769Q286 774 357 774Q444 774 494.50 766Q545 758 580.50 731.50Q616 705 629 657.50Q642 610 642 530L642 237Q642 159 632.50 116Q623 73 591.50 43Q560 13 506 3.50Q452-6 357-6Q302-6 272-5Q242-4 202.50 1Q163 6 142.50 17Q122 28 101.50 47Q81 66 73 95.50Q65 125 65 167Z"  horiz-adv-x="706" vert-adv-y="1024"  />

      
      <glyph glyph-name="uni3a" unicode="&#x3a;" d="M204 104L204 0L113 0L113 104L204 104M204 538L204 433L113 433L113 538L204 538Z"  horiz-adv-x="353" vert-adv-y="1024"  />

      
      <glyph glyph-name="uni3b" unicode="&#x3b;" d="M163 0L124 0L124 104L215 104L215-19Q215-66 199-90.50Q183-115 136-115L113-115L113-69Q142-68 152.50-57.50Q163-47 163-19L163 0M215 538L215 433L124 433L124 538L215 538Z"  horiz-adv-x="353" vert-adv-y="1024"  />

      
      <glyph glyph-name="uni3c" unicode="&#x3c;" d="M547 496L547 414L142 248L547 82L547 0L51 212L51 284L547 496Z"  horiz-adv-x="598" vert-adv-y="1024"  />

      
      <glyph glyph-name="uni3d" unicode="&#x3d;" d="M51 409L547 409L547 332L51 332L51 409M51 250L547 250L547 173L51 173L51 250Z"  horiz-adv-x="598" vert-adv-y="1024"  />

      
      <glyph glyph-name="uni3e" unicode="&#x3e;" d="M547 284L547 212L51 0L51 82L452 248L51 414L51 496L547 284Z"  horiz-adv-x="598" vert-adv-y="1024"  />

      
      <glyph glyph-name="uni41" unicode="&#x41;" d="M545 163L157 163L97 0L6 0L286 768L409 768L695 0L605 0L545 163M520 234L349 696L180 234L520 234Z"  horiz-adv-x="701" vert-adv-y="1024"  />

      
      <glyph glyph-name="uni42" unicode="&#x42;" d="M150 356L150 77L425 77Q504 77 534.50 100Q565 123 565 206Q565 290 540.50 323.50Q516 357 435 356L150 356M471 0L62 0L62 768L452 768Q555 768 592.50 720Q630 672 630 565Q630 498 610 460Q590 422 534 403L534 401Q605 389 628.50 342.50Q652 296 652 214Q652 108 609 54Q566 0 471 0M150 691L150 433L402 433Q483 433 513 461Q543 489 543 577Q543 650 514.50 670.50Q486 691 412 691L150 691Z"  horiz-adv-x="710" vert-adv-y="1024"  />

      
      <glyph glyph-name="uni43" unicode="&#x43;" d="M392-6L269-6Q164-6 105 57.50Q46 121 46 236L46 532Q46 595 62.50 640.50Q79 686 104.50 711.50Q130 737 174 751.50Q218 766 261 770Q304 774 367 774L438 774Q556 774 602 722.50Q648 671 648 553L648 528L561 528L561 550Q561 634 534.50 665.50Q508 697 426 697L377 697Q235 697 184 667Q133 637 133 536L133 325Q133 274 134 244.50Q135 215 140 181.50Q145 148 155 131Q165 114 182 98.50Q199 83 224.50 77Q250 71 286 71L389 71Q497 71 534 95.50Q571 120 571 200L571 261L658 261L658 189Q658 138 644.50 102Q631 66 609.50 45Q588 24 551.50 12.50Q515 1 479.50-2.50Q444-6 392-6Z"  horiz-adv-x="680" vert-adv-y="1024"  />

      
      <glyph glyph-name="uni44" unicode="&#x44;" d="M66 0L66 768L439 768Q476 768 503 765Q530 762 570.50 745Q611 728 637.50 699Q664 670 683 611.50Q702 553 702 472L702 289Q702 263 700 240Q698 217 691 180.50Q684 144 667 115Q650 86 625 58.50Q600 31 557.50 15.50Q515 0 460 0L66 0M153 77L439 77Q495 77 531 92.50Q567 108 584.50 140.50Q602 173 608 210Q614 247 615 304L615 506Q615 529 610 554.50Q605 580 590 613.50Q575 647 540 669Q505 691 454 691L153 691L153 77Z"  horiz-adv-x="751" vert-adv-y="1024"  />

      
      <glyph glyph-name="uni45" unicode="&#x45;" d="M129 691L129 430L518 430L518 358L129 358L129 77L536 77L536 0L42 0L42 768L536 768L536 691L129 691Z"  horiz-adv-x="573" vert-adv-y="1024"  />

      
      <glyph glyph-name="uni46" unicode="&#x46;" d="M154 691L154 423L527 423L527 351L154 351L154 0L67 0L67 768L538 768L538 691L154 691Z"  horiz-adv-x="562" vert-adv-y="1024"  />

      
      <glyph glyph-name="uni47" unicode="&#x47;" d="M347 384L679 384L679 217Q679 87 620 40.50Q561-6 424-6L340-6Q257-6 206.50 3.50Q156 13 117 42.50Q78 72 61.50 126.50Q45 181 45 269L45 507Q45 653 104 713.50Q163 774 270 774L472 774Q565 774 621 732.50Q677 691 677 603L677 544L590 544L590 588Q590 654 557 675.50Q524 697 430 697L323 697Q280 697 251 694Q222 691 199.50 682Q177 673 165 660Q153 647 145 623Q137 599 134.50 570.50Q132 542 132 497L132 250Q132 142 173 106.50Q214 71 325 71L407 71Q524 71 558 96Q592 121 592 212L592 307L347 307L347 384Z"  horiz-adv-x="712" vert-adv-y="1024"  />

      
      <glyph glyph-name="uni48" unicode="&#x48;" d="M696 768L696 0L609 0L609 353L160 353L160 0L73 0L73 768L160 768L160 430L609 430L609 768L696 768Z"  horiz-adv-x="768" vert-adv-y="1024"  />

      
      <glyph glyph-name="uni49" unicode="&#x49;" d="M161 768L161 0L74 0L74 768L161 768Z"  horiz-adv-x="233" vert-adv-y="1024"  />

      
      <glyph glyph-name="uni4a" unicode="&#x4a;" d="M419 768L505 768L505 185Q505 77 445 35.50Q385-6 271-6Q227-6 194.50-2.50Q162 1 129 11.50Q96 22 75.50 40.50Q55 59 42.50 91Q30 123 30 167L30 280L117 280L117 193Q117 119 142 95Q167 71 256 71Q288 71 304.50 71.50Q321 72 346.50 77.50Q372 83 384.50 92.50Q397 102 407.50 122.50Q418 143 418 173L419 768Z"  horiz-adv-x="578" vert-adv-y="1024"  />

      
      <glyph glyph-name="uni4b" unicode="&#x4b;" d="M161 768L161 432L237 432L550 768L664 768L312 396L706 0L588 0L237 355L161 355L161 0L74 0L74 768L161 768Z"  horiz-adv-x="694" vert-adv-y="1024"  />

      
      <glyph glyph-name="uni4c" unicode="&#x4c;" d="M164 768L164 77L555 77L555 0L77 0L77 768L164 768Z"  horiz-adv-x="571" vert-adv-y="1024"  />

      
      <glyph glyph-name="uni4d" unicode="&#x4d;" d="M827 702L538 0L452 0L161 702L159 702L159 0L72 0L72 768L222 768L494 111L766 768L916 768L916 0L829 0L829 702L827 702Z"  horiz-adv-x="988" vert-adv-y="1024"  />

      
      <glyph glyph-name="uni4e" unicode="&#x4e;" d="M732 768L732 0L590 0L159 696L157 696L157 0L70 0L70 768L213 768L643 67L645 67L645 768L732 768Z"  horiz-adv-x="801" vert-adv-y="1024"  />

      
      <glyph glyph-name="uni4f" unicode="&#x4f;" d="M292 774L395 774Q538 773 591.50 717.50Q645 662 645 516L645 243Q645 107 589.50 50.50Q534-6 395-6L292-6Q154-6 98 50Q42 106 42 243L42 516Q42 661 95.50 717Q149 773 292 774M395 697L292 697Q194 697 161.50 662Q129 627 129 516L129 243Q129 187 137.50 152.50Q146 118 168.50 100Q191 82 218 76.50Q245 71 292 71L395 71Q442 71 469 76.50Q496 82 518.50 100Q541 118 549.50 152Q558 186 558 243L558 516Q558 627 525.50 662Q493 697 395 697Z"  horiz-adv-x="687" vert-adv-y="1024"  />

      
      <glyph glyph-name="uni50" unicode="&#x50;" d="M60 0L60 768L452 768Q555 768 595 707Q635 646 635 536Q635 514 634.50 500Q634 486 630.50 459Q627 432 620 413Q613 394 599.50 371Q586 348 566.50 333.50Q547 319 516.50 309Q486 299 447 299L147 299L147 0L60 0M414 691L147 691L147 376L373 376Q399 376 410 376Q421 376 441.50 377.50Q462 379 470 381.50Q478 384 493 388.50Q508 393 513.50 401Q519 409 528 419.50Q537 430 540 445Q543 460 545.50 480Q548 500 548 524Q548 580 543 612Q538 644 521 662.50Q504 681 480.50 686Q457 691 414 691Z"  horiz-adv-x="676" vert-adv-y="1024"  />

      
      <glyph glyph-name="uni51" unicode="&#x51;" d="M752 94L716 35L658 74Q592-6 436-6L316-6Q234-6 182.50 10Q131 26 102 63.50Q73 101 62 153.50Q51 206 51 288L51 505Q51 647 111.50 708Q172 769 316 774L436 774Q583 774 643 714Q703 654 703 505L703 288Q703 186 687 137L752 94M389 334L610 188Q616 204 616 249L616 535Q616 615 583 656Q550 697 454 697L307 697Q211 697 174.50 659Q138 621 138 522L138 272Q138 147 172.50 109Q207 71 307 71L454 71Q555 71 589 119L349 274L389 334Z"  horiz-adv-x="754" vert-adv-y="1024"  />

      
      <glyph glyph-name="uni52" unicode="&#x52;" d="M158 307L158 0L71 0L71 768L425 768Q554 768 609 721Q664 674 664 547Q664 501 659.50 471Q655 441 642.50 412Q630 383 601.50 366Q573 349 529 344L529 342Q653 333 653 204L653 0L566 0L566 163Q566 241 539.50 274Q513 307 437 307L158 307M158 384L426 384Q522 387 549.50 421.50Q577 456 577 556Q577 597 572.50 619.50Q568 642 553 660Q538 678 507.50 684.50Q477 691 426 691L158 691L158 384Z"  horiz-adv-x="717" vert-adv-y="1024"  />

      
      <glyph glyph-name="uni53" unicode="&#x53;" d="M318 354Q301 355 269.50 357Q238 359 221.50 360.50Q205 362 179 365.50Q153 369 138.50 374.50Q124 380 105 389Q86 398 76 412.50Q66 427 55.50 446Q45 465 41 491.50Q37 518 37 551Q37 602 44 638.50Q51 675 68.50 699.50Q86 724 107 739.50Q128 755 163.50 762Q199 769 233 771.50Q267 774 321 774Q364 774 389.50 773Q415 772 448.50 768Q482 764 502 755Q522 746 543.50 730.50Q565 715 576 692.50Q587 670 593 636Q599 602 597 558L510 558Q509 594 506.50 615.50Q504 637 494 654Q484 671 474 678.50Q464 686 438.50 690.50Q413 695 389 696Q365 697 317 697Q250 697 214.50 692.50Q179 688 157.50 672.50Q136 657 130 634.50Q124 612 124 569Q124 520 132.50 492Q141 464 170.50 451Q200 438 222 435.50Q244 433 302 432Q325 431 337 431Q468 424 505 414Q576 395 597 329Q611 287 611 218Q611 172 604.50 137Q598 102 587.50 78Q577 54 555.50 38.50Q534 23 514.50 14Q495 5 458.50 0.50Q422-4 393.50-5Q365-6 315-6Q249-6 208.50-2Q168 2 128.50 16.50Q89 31 69 57.50Q49 84 39.50 129Q30 174 35 240L122 240Q122 213 122.50 193.50Q123 174 126 157Q129 140 131.50 128.50Q134 117 143 107Q152 97 157 91.50Q162 86 177.50 81.50Q193 77 201.50 75Q210 73 233 72Q256 71 270 71Q284 71 315 71Q354 71 371.50 71.50Q389 72 416 73.50Q443 75 454 78.50Q465 82 481 89.50Q497 97 502 107.50Q507 118 514 134.50Q521 151 522.50 172Q524 193 524 221Q524 249 520.50 269Q517 289 512 302Q507 315 495.50 324.50Q484 334 474.50 338.50Q465 343 445 345.50Q425 348 410 349Q395 350 366.50 351Q338 352 318 354Z"  horiz-adv-x="644" vert-adv-y="1024"  />

      
      <glyph glyph-name="uni54" unicode="&#x54;" d="M340 691L340 0L253 0L253 691L4 691L4 768L589 768L589 691L340 691Z"  horiz-adv-x="592" vert-adv-y="1024"  />

      
      <glyph glyph-name="uni55" unicode="&#x55;" d="M595 768L682 768L682 215Q682 155 666.50 113.50Q651 72 628 48.50Q605 25 562 12.50Q519 0 479.50-3Q440-6 378-6Q333-6 307.50-5Q282-4 245 0Q208 4 187 12Q166 20 141.50 36.50Q117 53 104 76Q91 99 82.50 134.50Q74 170 74 215L74 768L161 768L161 215Q161 175 166 151.50Q171 128 183 110.50Q195 93 221.50 85.50Q248 78 283 74.50Q318 71 378 71Q415 71 432.50 71.50Q450 72 476.50 73.50Q503 75 515 78.50Q527 82 544 89Q561 96 567.50 106.50Q574 117 582 132Q590 147 592.50 167.50Q595 188 595 215L595 768Z"  horiz-adv-x="754" vert-adv-y="1024"  />

      
      <glyph glyph-name="uni56" unicode="&#x56;" d="M571 768L665 768L392 0L268 0L-6 768L87 768L329 67L332 67L571 768Z"  horiz-adv-x="658" vert-adv-y="1024"  />

      
      <glyph glyph-name="uni57" unicode="&#x57;" d="M1148 768L906 0L774 0L573 691L571 691L368 0L238 0L2 768L91 768L300 67L302 67L509 768L637 768L842 67L844 67L1058 768L1148 768Z"  horiz-adv-x="1149" vert-adv-y="1024"  />

      
      <glyph glyph-name="uni58" unicode="&#x58;" d="M656 768L411 397L675 0L572 0L339 353L100 0L-6 0L268 397L16 768L121 768L339 439L554 768L656 768Z"  horiz-adv-x="668" vert-adv-y="1024"  />

      
      <glyph glyph-name="uni59" unicode="&#x59;" d="M653 768L362 321L362 0L275 0L275 321L-6 768L95 768L323 409L550 768L653 768Z"  horiz-adv-x="647" vert-adv-y="1024"  />

      
      <glyph glyph-name="uni5a" unicode="&#x5a;" d="M615 768L615 687L132 77L626 77L626 0L27 0L27 76L509 691L41 691L41 768L615 768Z"  horiz-adv-x="652" vert-adv-y="1024"  />

      
      <glyph glyph-name="uni5b" unicode="&#x5b;" d="M56 774L255 774L255 697L143 697L143-77L255-77L255-154L56-154L56 774Z"  horiz-adv-x="318" vert-adv-y="1024"  />

      
      <glyph glyph-name="uni5d" unicode="&#x5d;" d="M262-154L63-154L63-77L175-77L175 697L63 697L63 774L262 774L262-154Z"  horiz-adv-x="318" vert-adv-y="1024"  />

      
      <glyph glyph-name="uni61" unicode="&#x61;" d="M269 59Q300 59 318 60Q336 61 361 66.50Q386 72 399.50 82Q413 92 422.50 111.50Q432 131 432 160Q432 190 424 209Q416 228 405.50 238.50Q395 249 369.50 254Q344 259 326.50 259.50Q309 260 269 260Q190 260 162 244Q134 228 134 167Q134 95 162 77Q190 59 269 59M515 0L434 0L434 55L432 57Q412 16 368 5Q324-6 255-6Q153-6 101.50 26.50Q50 59 50 157Q50 211 63.50 245.50Q77 280 106 297Q135 314 170 320Q205 326 260 326Q417 326 429 271L434 271L434 371Q434 440 401.50 459Q369 478 291 478Q269 478 257.50 477.50Q246 477 226.50 475.50Q207 474 196 469Q185 464 173 456.50Q161 449 156 435.50Q151 422 151 404L151 386L67 386L67 397Q67 437 78.50 465.50Q90 494 107 509Q124 524 154.50 532.50Q185 541 212.50 542.50Q240 544 282 544Q328 544 358.50 541.50Q389 539 422 529Q455 519 473.50 500Q492 481 503.50 448Q515 415 515 367L515 0Z"  horiz-adv-x="583" vert-adv-y="1024"  />

      
      <glyph glyph-name="uni62" unicode="&#x62;" d="M452 268Q452 401 425.50 439.50Q399 478 303 478Q260 478 233 470.50Q206 463 189.50 449.50Q173 436 165 407.50Q157 379 155 350Q153 321 153 268Q153 139 183 99Q213 59 303 59Q346 59 373.50 68Q401 77 417 89.50Q433 102 441 132Q449 162 450.50 189Q452 216 452 268M70 0L70 768L151 768L151 468L153 468Q182 544 326 544Q394 544 436.50 525.50Q479 507 500 467.50Q521 428 528.50 383.50Q536 339 536 268Q536 195 529 150Q522 105 500.50 66.50Q479 28 436.50 11Q394-6 326-6Q190-6 153 66L151 63L151 0L70 0Z"  horiz-adv-x="587" vert-adv-y="1024"  />

      
      <glyph glyph-name="uni63" unicode="&#x63;" d="M436 195L517 195L517 165Q517 121 505.50 89Q494 57 474.50 38.50Q455 20 424 10Q393 0 362.50-3Q332-6 289-6Q234-6 194.50 0.50Q155 7 128 24Q101 41 86 61Q71 81 62.50 117.50Q54 154 52 188.50Q50 223 50 280Q50 352 58.50 396Q67 440 90 476Q113 512 158.50 528Q204 544 275 544Q331 544 367 539Q403 534 438.50 518Q474 502 491 467Q508 432 508 377L508 362L427 362L427 379Q427 408 420 426.50Q413 445 403 455.50Q393 466 371.50 471Q350 476 332 477Q314 478 281 478Q249 478 227 474Q205 470 189 465Q173 460 163 445Q153 430 146.50 417Q140 404 137.50 375.50Q135 347 134.50 324Q134 301 134 257Q134 213 135 189.50Q136 166 141 139.50Q146 113 156.50 101Q167 89 185.50 78Q204 67 231 63Q258 59 298 59Q379 59 407.50 78.50Q436 98 436 168L436 195Z"  horiz-adv-x="559" vert-adv-y="1024"  />

      
      <glyph glyph-name="uni64" unicode="&#x64;" d="M287 59Q380 59 408 100Q436 141 436 268Q436 387 408.50 432.50Q381 478 287 478Q220 478 190.50 464.50Q161 451 147.50 408Q134 365 134 268Q134 197 140.50 156.50Q147 116 167 94Q187 72 213.50 65.50Q240 59 287 59M436 0L436 68L434 70Q397-6 261-6Q191-6 147.50 12.50Q104 31 83 71.50Q62 112 56 155Q50 198 50 268Q50 323 53.50 359.50Q57 396 69 434Q81 472 103.50 494Q126 516 165.50 530Q205 544 261 544Q407 544 434 471L436 471L436 768L517 768L517 0L436 0Z"  horiz-adv-x="587" vert-adv-y="1024"  />

      
      <glyph glyph-name="uni65" unicode="&#x65;" d="M441 163L524 163L524 143Q524 102 511 73Q498 44 479 28.50Q460 13 426.50 5Q393-3 365.50-4.50Q338-6 295-6Q216-6 169 7Q122 20 96 55Q70 90 61.50 137.50Q53 185 53 268Q53 435 101.50 489.50Q150 544 295 544Q364 544 404.50 534.50Q445 525 474 498.50Q503 472 513.50 426.50Q524 381 524 305L524 251L137 251Q137 204 138.50 177.50Q140 151 146.50 126Q153 101 161.50 90.50Q170 80 189.50 71.50Q209 63 232.50 61Q256 59 295 59Q383 59 412 73.50Q441 88 441 142L441 163M137 316L440 316Q438 376 433.50 406Q429 436 411 454Q393 472 369.50 475Q346 478 295 478Q240 478 209.50 471.50Q179 465 163 442.50Q147 420 143.50 395.50Q140 371 137 316Z"  horiz-adv-x="578" vert-adv-y="1024"  />

      
      <glyph glyph-name="uni66" unicode="&#x66;" d="M171 538L313 538L313 472L171 472L171 0L90 0L90 472L8 472L8 538L90 538L90 602Q90 700 127 737Q164 774 263 774Q280 774 313 772L313 707Q280 709 263 709Q205 709 188 688.50Q171 668 171 610L171 538Z"  horiz-adv-x="309" vert-adv-y="1024"  />

      
      <glyph glyph-name="uni67" unicode="&#x67;" d="M284 59Q317 59 342 65.50Q367 72 383 79.50Q399 87 410 104.50Q421 122 427 135Q433 148 435.50 175Q438 202 438.50 218Q439 234 439 268Q439 319 437 348Q435 377 426.50 405.50Q418 434 401 448Q384 462 356 470Q328 478 284 478Q259 478 239 475Q219 472 204 468.50Q189 465 178.50 454.50Q168 444 161 437.50Q154 431 148.50 413Q143 395 140.50 386Q138 377 137 351.50Q136 326 136 313.50Q136 301 136 268Q136 165 143 136Q159 77 228 63Q252 59 284 59M520 538L520-63Q520-162 457-200.50Q394-239 284-239Q242-239 212-235.50Q182-232 152-221.50Q122-211 104-192.50Q86-174 76.50-141.50Q67-109 69-63L150-63Q150-135 180-154Q210-173 284-173Q367-173 402.50-151.50Q438-130 439-57L439 67L437 67Q412-6 264-6Q139-6 95.50 57.50Q52 121 52 268Q52 342 59.50 388Q67 434 89 472Q111 510 154 527Q197 544 264 544Q330 544 373 528.50Q416 513 437 469L439 470L439 538L520 538Z"  horiz-adv-x="586" vert-adv-y="1024"  />

      
      <glyph glyph-name="uni68" unicode="&#x68;" d="M152 768L152 472L154 472Q183 544 319 544Q429 544 476 504.50Q523 465 522 357L522 0L441 0L441 364Q441 435 413 456.50Q385 478 312 478Q215 478 183.50 443.50Q152 409 152 313L152 0L71 0L71 768L152 768Z"  horiz-adv-x="593" vert-adv-y="1024"  />

      
      <glyph glyph-name="uni69" unicode="&#x69;" d="M151 538L151 0L70 0L70 538L151 538M151 768L151 679L70 679L70 768L151 768Z"  horiz-adv-x="220" vert-adv-y="1024"  />

      
      <glyph glyph-name="uni6a" unicode="&#x6a;" d="M151 538L151-65Q150-101 145.50-123.50Q141-146 129.50-169.50Q118-193 94.50-203.50Q71-214 35-214Q18-214-5-209L-5-146Q-2-146 3-146.50Q8-147 11-147Q21-147 30-145.50Q39-144 45-139Q51-134 55.50-130.50Q60-127 63-118.50Q66-110 67.50-105Q69-100 69.50-89Q70-78 70-73Q70-68 70-55Q70-42 70-38L70 538L151 538M151 768L151 679L70 679L70 768L151 768Z"  horiz-adv-x="214" vert-adv-y="1024"  />

      
      <glyph glyph-name="uni6b" unicode="&#x6b;" d="M151 768L151 324L183 324L377 538L476 538L246 291L518 0L412 0L183 258L151 258L151 0L70 0L70 768L151 768Z"  horiz-adv-x="498" vert-adv-y="1024"  />

      
      <glyph glyph-name="uni6c" unicode="&#x6c;" d="M151 768L151 0L70 0L70 768L151 768Z"  horiz-adv-x="219" vert-adv-y="1024"  />

      
      <glyph glyph-name="uni6d" unicode="&#x6d;" d="M148 538L148 455L151 455Q188 544 330 544Q388 544 435.50 523.50Q483 503 496 455Q541 544 687 544Q789 544 831 500Q873 456 873 354L873 0L793 0L793 346Q793 420 771 449Q749 478 675 478Q586 478 548.50 446.50Q511 415 511 330L511 0L430 0L430 360Q429 395 426.50 410Q424 425 413 444.50Q402 464 377 471Q352 478 310 478Q228 478 188 441Q148 404 148 324L148 0L68 0L68 538L148 538Z"  horiz-adv-x="941" vert-adv-y="1024"  />

      
      <glyph glyph-name="uni6e" unicode="&#x6e;" d="M152 538L152 472L154 472Q183 544 319 544Q429 544 476 504.50Q523 465 522 357L522 0L441 0L441 364Q441 435 413 456.50Q385 478 312 478Q215 478 183.50 443.50Q152 409 152 313L152 0L71 0L71 538L152 538Z"  horiz-adv-x="593" vert-adv-y="1024"  />

      
      <glyph glyph-name="uni6f" unicode="&#x6f;" d="M62 129Q62 129 57.50 154Q53 179 53 268Q53 357 62 407.50Q71 458 98.50 490.50Q126 523 170 533.50Q214 544 292 544Q370 544 414 533.50Q458 523 485.50 490.50Q513 458 521.50 407.50Q530 357 530 268Q530 179 521.50 129Q513 79 485.50 46.50Q458 14 414 4Q370-6 292-6Q214-6 170 4Q126 14 98.50 46.50Q71 79 62 129M138 350Q138 350 137.50 335.50Q137 321 137 268.50Q137 216 138 187.50Q139 159 145.50 131.50Q152 104 160.50 93Q169 82 188 72.50Q207 63 230 61Q253 59 292 59Q331 59 354 61Q377 63 396 72.50Q415 82 423.50 93Q432 104 438 131.50Q444 159 445 187.50Q446 216 446 268.50Q446 321 445 350Q444 379 438 405.50Q432 432 423.50 444Q415 456 396 465Q377 474 354 476Q331 478 292 478Q253 478 230 476Q207 474 188 465Q169 456 160.50 444Q152 432 145.50 405.50Q139 379 138 350Z"  horiz-adv-x="583" vert-adv-y="1024"  />

      
      <glyph glyph-name="uni70" unicode="&#x70;" d="M301 478Q268 478 244 473Q220 468 203.50 462Q187 456 176.50 439.50Q166 423 160.50 411Q155 399 152.50 371Q150 343 149 325Q148 307 148 268Q148 223 150.50 196.50Q153 170 161 140.50Q169 111 185 95.50Q201 80 230 69.50Q259 59 301 59Q394 59 422 98Q450 137 450 268Q450 336 446 370Q442 404 427 432Q412 460 382.50 469Q353 478 301 478M148 538L148 472L151 470Q190 544 324 544Q381 544 420.50 529.50Q460 515 482 494Q504 473 515.50 434Q527 395 530.50 360Q534 325 534 268Q534 109 488.50 51.50Q443-6 324-6Q185-6 151 63L148 63L148-232L68-232L68 538L148 538Z"  horiz-adv-x="586" vert-adv-y="1024"  />

      
      <glyph glyph-name="uni71" unicode="&#x71;" d="M291 59Q341 59 371 71Q401 83 415.50 113Q430 143 433.50 175.50Q437 208 437 268Q437 306 436.50 327.50Q436 349 433 375Q430 401 423.50 414.50Q417 428 405.50 442.50Q394 457 376.50 463.50Q359 470 335 474Q311 478 279 478Q221 478 193 464.50Q165 451 151 406Q137 361 137 268Q137 229 137.50 208.50Q138 188 141 161.50Q144 135 150.50 122.50Q157 110 167.50 95Q178 80 194.50 74Q211 68 234.50 63.50Q258 59 291 59M520 538L520-232L439-232L439 61L437 61Q407-7 280-6Q214-6 174.50 4Q135 14 106 44Q77 74 65 127.50Q53 181 53 268Q53 317 55.50 350.50Q58 384 66.50 418Q75 452 90 473Q105 494 130 511Q155 528 192 536Q229 544 280 544Q400 544 437 471L439 473L439 538L520 538Z"  horiz-adv-x="588" vert-adv-y="1024"  />

      
      <glyph glyph-name="uni72" unicode="&#x72;" d="M59 538L138 538L134 471L136 469Q171 544 289 544Q439 544 438 392L438 353L361 353L361 389Q361 439 341.50 458.50Q322 478 271 478Q198 478 168 443.50Q138 409 140 335L140 0L59 0L59 538Z"  horiz-adv-x="452" vert-adv-y="1024"  />

      
      <glyph glyph-name="uni73" unicode="&#x73;" d="M496 418L496 397L412 397L412 418Q412 434 406 444.50Q400 455 392.50 460.50Q385 466 365.50 468.50Q346 471 331.50 471.50Q317 472 286 472Q252 472 238.50 472Q225 472 202.50 470Q180 468 172 464.50Q164 461 152.50 453Q141 445 138 434Q135 423 135 407Q135 345 152 330.50Q169 316 227 314Q239 313 246 313Q263 312 296 311Q329 310 345.50 309Q362 308 389 304.50Q416 301 430 295Q444 289 462 277.50Q480 266 489 249.50Q498 233 504 208Q510 183 510 152Q510 108 497 77Q484 46 466.50 30Q449 14 415.50 5.50Q382-3 356-4.50Q330-6 286-6Q243-6 215-4.50Q187-3 152 4Q117 11 96.50 24Q76 37 61.50 61Q47 85 47 120L47 170L131 170L131 128Q131 90 162 78Q193 66 286 66Q290 66 307.50 65.50Q325 65 332 65.50Q339 66 354.50 67.50Q370 69 377.50 72Q385 75 396 81Q407 87 412.50 95.50Q418 104 422 117.50Q426 131 426 148Q426 173 421.50 189.50Q417 206 412.50 214.50Q408 223 392 227.50Q376 232 366.50 233Q357 234 329.50 235Q302 236 286 237Q274 238 247.50 239Q221 240 208.50 241Q196 242 174 245Q152 248 140 252Q128 256 111 263Q94 270 85.50 280.50Q77 291 67.50 306Q58 321 54.50 340.50Q51 360 51 385Q51 414 54.50 436.50Q58 459 67.50 475.50Q77 492 86.50 503.50Q96 515 114.50 522.50Q133 530 147.50 534.50Q162 539 188.50 541Q215 543 233.50 543.50Q252 544 286 544Q322 544 345 543Q368 542 399.50 534.50Q431 527 449.50 515Q468 503 482 478Q496 453 496 418Z"  horiz-adv-x="549" vert-adv-y="1024"  />

      
      <glyph glyph-name="uni74" unicode="&#x74;" d="M354 538L354 472L146 472L146 131Q147 88 162 73.50Q177 59 222 59Q250 59 266.50 65.50Q283 72 289 86.50Q295 101 296.50 113.50Q298 126 298 151L298 190L375 190L375 151Q375 70 338.50 32Q302-6 220-6Q127-6 96.50 27Q66 60 66 156L66 472L-6 472L-6 538L66 538L66 668L146 668L146 538L354 538Z"  horiz-adv-x="374" vert-adv-y="1024"  />

      
      <glyph glyph-name="uni75" unicode="&#x75;" d="M430 0L430 72L428 72Q394-6 260-6Q155-6 111.50 39.50Q68 85 68 193L68 538L148 538L148 193Q148 118 167 88.50Q186 59 259 59Q352 59 391.50 87.50Q431 116 431 206L431 538L512 538L512 0L430 0Z"  horiz-adv-x="583" vert-adv-y="1024"  />

      
      <glyph glyph-name="uni76" unicode="&#x76;" d="M468 538L288 0L174 0L-4 538L78 538L230 61L232 61L380 538L468 538Z"  horiz-adv-x="463" vert-adv-y="1024"  />

      
      <glyph glyph-name="uni77" unicode="&#x77;" d="M769 538L618 0L501 0L386 481L384 481L268 0L150 0L4 538L87 538L209 56L211 56L329 538L444 538L561 56L563 56L685 538L769 538Z"  horiz-adv-x="772" vert-adv-y="1024"  />

      
      <glyph glyph-name="uni78" unicode="&#x78;" d="M449 538L278 281L469 0L372 0L232 217L93 0L-4 0L190 281L16 538L108 538L232 341L354 538L449 538Z"  horiz-adv-x="464" vert-adv-y="1024"  />

      
      <glyph glyph-name="uni79" unicode="&#x79;" d="M452 538L297-38Q268-137 247-172Q204-239 116-239Q107-239 79-233L79-171Q93-174 108-174Q132-174 149.50-163Q167-152 178-129Q189-106 195.50-88.50Q202-71 209-40.50Q216-10 219 0L190 0L-4 538L79 538L245 59L247 59L368 538L452 538Z"  horiz-adv-x="447" vert-adv-y="1024"  />

      
      <glyph glyph-name="uni7a" unicode="&#x7a;" d="M440 538L440 463L120 66L440 66L440 0L26 0L26 75L346 472L52 472L52 538L440 538Z"  horiz-adv-x="464" vert-adv-y="1024"  />

      
      <glyph glyph-name="uni7b" unicode="&#x7b;" d="M49 272L49 349Q98 355 113.50 386.50Q129 418 129 484L129 652Q129 701 158.50 737.50Q188 774 213 774L298 774L298 697L253 697Q231 697 223.50 682Q216 667 216 635L216 468Q216 420 197.50 381Q179 342 166.50 330Q154 318 142 310Q216 253 216 153L216-13Q216-46 223.50-61.50Q231-77 253-77L298-77L298-154L213-154Q188-154 158.50-118Q129-82 129-32L129 136Q129 202 113.50 234Q98 266 49 272Z"  horiz-adv-x="342" vert-adv-y="1024"  />

      
      <glyph glyph-name="uni7d" unicode="&#x7d;" d="M293 348L293 271Q244 265 228.50 234Q213 203 213 136L213-32Q213-81 183.50-117.50Q154-154 129-154L44-154L44-77L89-77Q111-77 118.50-61.50Q126-46 126-14L126 153Q126 201 144.50 240Q163 279 175.50 290.50Q188 302 200 310Q126 367 126 468L126 634Q126 667 118.50 682Q111 697 89 697L44 697L44 774L129 774Q154 774 183.50 738Q213 702 213 652L213 484Q213 418 228.50 386Q244 354 293 348Z"  horiz-adv-x="342" vert-adv-y="1024"  />

      
      <glyph glyph-name="uni4E00" unicode="&#x4E00;" d="M80 460L964 460L964 372L80 372L80 460Z"  horiz-adv-x="1024" vert-adv-y="1024"  />

      
      <glyph glyph-name="uni4E01" unicode="&#x4E01;" d="M528 648L92 648L92 736L936 736L936 648L628 648L628-68L312-68L312 20L528 20L528 648Z"  horiz-adv-x="1024" vert-adv-y="1024"  />

      
      <glyph glyph-name="uni4E03" unicode="&#x4E03;" d="M112 400L76 476L912 576L948 496L112 400M936 20L936-68L356-68L356 756L452 756L452 20L936 20Z"  horiz-adv-x="1024" vert-adv-y="1024"  />

      
      <glyph glyph-name="uni4E07" unicode="&#x4E07;" d="M304 368L304 464L916 464L896-68L660-68L660 20L796 20L808 368L304 368M324 280L160-68L68-48L228 304L252 648L92 648L92 736L936 736L936 648L352 648L324 280Z"  horiz-adv-x="1024" vert-adv-y="1024"  />

      
      <glyph glyph-name="uni4E09" unicode="&#x4E09;" d="M72 28L952 28L952-60L72-60L72 28M92 720L932 720L932 632L92 632L92 720M132 412L888 412L888 324L132 324L132 412Z"  horiz-adv-x="1024" vert-adv-y="1024"  />

      
      <glyph glyph-name="uni4E0A" unicode="&#x4E0A;" d="M516 516L916 516L916 428L516 428L516 20L932 20L932-68L88-68L88 20L416 20L416 752L516 752L516 516Z"  horiz-adv-x="1024" vert-adv-y="1024"  />

      
      <glyph glyph-name="uni4E0B" unicode="&#x4E0B;" d="M516 660L516-68L416-68L416 660L84 660L84 748L940 748L940 660L516 660M640 452L920 264L852 192L572 384L640 452Z"  horiz-adv-x="1024" vert-adv-y="1024"  />

      
      <glyph glyph-name="uni4E2A" unicode="&#x4E2A;" d="M136 460L84 536L512 768L948 536L888 460L512 668L136 460M560 580L560-80L464-80L464 580L560 580Z"  horiz-adv-x="1024" vert-adv-y="1024"  />

      
      <glyph glyph-name="uni4E5D" unicode="&#x4E5D;" d="M72-48L420 760L520 740L164-68L72-48M956-68L784-68L816 548L100 548L100 636L920 636L892 20L956 20L956-68Z"  horiz-adv-x="1024" vert-adv-y="1024"  />

      
      <glyph glyph-name="uni4E8C" unicode="&#x4E8C;" d="M76 20L948 20L948-68L76-68L76 20M132 624L132 712L888 712L888 624L132 624Z"  horiz-adv-x="1024" vert-adv-y="1024"  />

      
      <glyph glyph-name="uni4E94" unicode="&#x4E94;" d="M344-28L244-28L376 708L472 708L344-28M96 656L96 744L940 744L940 656L96 656M124 384L124 472L884 472L884 16L940 16L940-68L96-68L96 16L784 16L784 384L124 384Z"  horiz-adv-x="1024" vert-adv-y="1024"  />

      
      <glyph glyph-name="uni4EAC" unicode="&#x4EAC;" d="M356 92L112-60L80 28L320 180L356 92M696 176L940 28L912-60L664 88L696 176M92 644L92 724L468 724L452 764L560 776L576 724L932 724L932 644L92 644M208 320L816 320L816 460L208 460L208 320M376 16L488 16L488 236L112 236L112 548L912 548L912 236L592 236L592-68L376-68L376 16Z"  horiz-adv-x="1024" vert-adv-y="1024"  />

      
      <glyph glyph-name="uni4EBA" unicode="&#x4EBA;" d="M564 428L940 12L884-68L508 340L132-68L80 8L460 428L460 760L564 760L564 428Z"  horiz-adv-x="1024" vert-adv-y="1024"  />

      
      <glyph glyph-name="uni4EBF" unicode="&#x4EBF;" d="M144 344L64 396L180 760L264 704L144 344M112-68L112 384L212 384L212-68L112-68M952-68L956 76L860 96L860 20L492 20L948 736L372 736L372 652L780 652L348-24L348-68L952-68Z"  horiz-adv-x="1024" vert-adv-y="1024"  />

      
      <glyph glyph-name="uni4EF6" unicode="&#x4EF6;" d="M140 340L64 396L180 760L256 704L140 340M112-68L112 384L212 384L212-68L112-68M324 412L360 736L444 684L404 360L324 412M412 600L412 688L612 688L612 756L708 756L708 688L940 688L940 600L708 600L708 228L956 228L956 140L708 140L708-68L612-68L612 140L328 140L328 228L612 228L612 600L412 600Z"  horiz-adv-x="1024" vert-adv-y="1024"  />

      
      <glyph glyph-name="uni4FE1" unicode="&#x4FE1;" d="M144 344L64 396L180 760L264 704L144 344M112-68L112 384L212 384L212-68L112-68M348 376L928 376L928 288L348 288L348 376M348 548L928 548L928 460L348 460L348 548M324 628L324 716L584 716L572 752L676 776L696 716L952 716L952 628L324 628M828 20L828 108L444 108L444 20L828 20M928-68L344-68L344 200L928 200L928-68Z"  horiz-adv-x="1024" vert-adv-y="1024"  />

      
      <glyph glyph-name="uni5143" unicode="&#x5143;" d="M932-68L664-68L664 340L380 340L192-68L96-52L276 340L92 340L92 428L936 428L936 340L760 340L760 20L932 20L932-68M124 740L904 740L904 652L124 652L124 740Z"  horiz-adv-x="1024" vert-adv-y="1024"  />

      
      <glyph glyph-name="uni5168" unicode="&#x5168;" d="M120 568L76 644L512 776L948 644L904 568L508 688L120 568M560 424L560 272L904 272L904 184L560 184L560 20L928 20L928-68L100-68L100 20L464 20L464 184L120 184L120 272L464 272L464 424L108 424L108 512L916 512L916 424L560 424Z"  horiz-adv-x="1024" vert-adv-y="1024"  />

      
      <glyph glyph-name="uni516B" unicode="&#x516B;" d="M440 724L168-68L68-36L340 756L440 724M584 724L856-68L956-36L684 756L584 724Z"  horiz-adv-x="1024" vert-adv-y="1024"  />

      
      <glyph glyph-name="uni516C" unicode="&#x516C;" d="M280 688L136 284L60 332L200 736L280 688M840 736L956 348L868 308L768 648L356 648L356 736L840 736M808 276L936-68L92-68L456 484L544 460L256 20L804 20L728 220L808 276Z"  horiz-adv-x="1024" vert-adv-y="1024"  />

      
      <glyph glyph-name="uni516D" unicode="&#x516D;" d="M768 296L936-32L844-68L676 260L768 296M944 496L944 408L80 408L80 496L944 496M352 260L184-68L92-32L260 296L352 260M716 632L652 560L252 688L316 760L716 632Z"  horiz-adv-x="1024" vert-adv-y="1024"  />

      
      <glyph glyph-name="uni51FB" unicode="&#x51FB;" d="M920 212L920-68L108-68L108 212L204 212L204 20L468 20L468 332L88 332L88 420L468 420L468 612L112 612L112 700L468 700L468 760L560 760L560 700L912 700L912 612L560 612L560 420L940 420L940 332L560 332L560 20L824 20L824 212L920 212Z"  horiz-adv-x="1024" vert-adv-y="1024"  />

      
      <glyph glyph-name="uni5206" unicode="&#x5206;" d="M444 696L140 480L68 540L368 752L444 696M812 316L796 20L668 20L668-68L892-68L912 404L112 404L112 316L304 316L84-52L180-68L412 316L812 316M580 696L888 480L956 540L652 752L580 696Z"  horiz-adv-x="1024" vert-adv-y="1024"  />

      
      <glyph glyph-name="uni5317" unicode="&#x5317;" d="M756 580L928 708L948 616L756 468L756 20L936 20L936-68L656-68L656 760L756 760L756 580M64 72L272 212L272 524L84 524L84 612L272 612L272 760L372 760L372-68L272-68L272 104L84-20L64 72Z"  horiz-adv-x="1024" vert-adv-y="1024"  />

      
      <glyph glyph-name="uni5341" unicode="&#x5341;" d="M564 780L564 460L944 460L944 368L564 368L564-72L468-72L468 368L80 368L80 460L468 460L468 780L564 780Z"  horiz-adv-x="1024" vert-adv-y="1024"  />

      
      <glyph glyph-name="uni5343" unicode="&#x5343;" d="M128 648L96 724L892 748L924 672L128 648M472 336L472 680L568 680L568 336L948 336L948 248L568 248L568-68L472-68L472 248L76 248L76 336L472 336Z"  horiz-adv-x="1024" vert-adv-y="1024"  />

      
      <glyph glyph-name="uni5357" unicode="&#x5357;" d="M392 400L468 336L372 316L292 380L392 400M564 116L772 116L772 28L564 28L564-68L464-68L464 28L252 28L252 116L464 116L464 196L260 196L260 284L548 284L648 400L744 380L660 284L764 284L764 196L564 196L564 116M188-68L88-68L88 540L460 540L460 628L84 628L84 716L460 716L460 756L560 756L560 716L944 716L944 628L560 628L560 540L936 540L936-68L784-68L784 20L836 20L836 452L188 452L188-68Z"  horiz-adv-x="1024" vert-adv-y="1024"  />

      
      <glyph glyph-name="uni53F0" unicode="&#x53F0;" d="M924-68L100-68L100 408L924 408L924-68M824 20L824 320L200 320L200 20L824 20M808 740L944 536L72 536L228 760L328 736L244 624L772 624L708 716L808 740Z"  horiz-adv-x="1024" vert-adv-y="1024"  />

      
      <glyph glyph-name="uni5468" unicode="&#x5468;" d="M396 68L636 68L636 156L396 156L396 68M468 552L468 608L568 608L568 552L732 552L732 468L568 468L568 396L764 396L764 312L264 312L264 396L468 396L468 468L300 468L300 552L468 552M732-20L296-20L296 240L732 240L732-20M200 660L200 148L160-68L68-40L100 136L100 748L928 748L928-68L792-68L792 24L828 24L828 660L200 660Z"  horiz-adv-x="1024" vert-adv-y="1024"  />

      
      <glyph glyph-name="uni56DB" unicode="&#x56DB;" d="M668 284L792 284L792 196L572 196L572 652L456 652L348 188L260 224L360 652L180 652L180 20L844 20L844 652L668 652L668 284M940-68L84-68L84 736L940 736L940-68Z"  horiz-adv-x="1024" vert-adv-y="1024"  />

      
      <glyph glyph-name="uni56FE" unicode="&#x56FE;" d="M324 432L412 476L784 344L704 296L324 432M664 260L608 196L364 240L420 304L664 260M300 180L776 136L728 68L252 112L300 180M316 296L240 344L644 496L644 532L368 532L320 448L260 512L316 608L748 608L748 456L316 296M192 12L836 12L836 672L192 672L192 12M92-68L92 752L936 752L936-68L92-68Z"  horiz-adv-x="1024" vert-adv-y="1024"  />

      
      <glyph glyph-name="uni5927" unicode="&#x5927;" d="M508 292L156-68L80-8L456 380L456 504L92 504L92 596L456 596L456 760L560 760L560 596L932 596L932 504L560 504L560 380L944-4L868-68L508 292Z"  horiz-adv-x="1024" vert-adv-y="1024"  />

      
      <glyph glyph-name="uni5B89" unicode="&#x5B89;" d="M108 192L224 540L316 520L220 240L948-16L864-68L108 192M192 552L96 552L96 724L480 724L468 756L568 772L588 724L928 724L928 552L828 552L828 636L192 636L192 552M88 380L88 468L936 468L936 380L884 380L884 184L156-68L84-16L784 236L784 380L88 380Z"  horiz-adv-x="1024" vert-adv-y="1024"  />

      
      <glyph glyph-name="uni5C3E" unicode="&#x5C3E;" d="M272 200L244 280L892 328L920 252L272 200M260 28L228 108L924 184L956 108L260 28M196 608L832 608L832 664L196 664L196 608M284 364L260 444L912 468L936 392L284 364M940-68L480-68L480 396L576 396L576 16L940 16L940-68M148-68L60-16L92 120L92 748L932 748L932 524L196 524L196 104L148-68Z"  horiz-adv-x="1024" vert-adv-y="1024"  />

      
      <glyph glyph-name="uni5E73" unicode="&#x5E73;" d="M944 544L744 300L652 332L848 576L944 544M176 576L372 332L280 300L80 544L176 576M460 220L460 664L100 664L100 748L924 748L924 664L564 664L564 220L956 220L956 132L564 132L564-68L460-68L460 132L68 132L68 220L460 220Z"  horiz-adv-x="1024" vert-adv-y="1024"  />

      
      <glyph glyph-name="uni5E74" unicode="&#x5E74;" d="M148 492L88 572L176 772L240 692L148 492M520 96L520 360L236 360L236 96L520 96M192 648L192 736L936 736L936 648L616 648L616 448L928 448L928 360L616 360L616 96L936 96L936 12L616 12L616-68L520-68L520 12L84 12L84 96L140 96L140 448L520 448L520 648L192 648Z"  horiz-adv-x="1024" vert-adv-y="1024"  />

      
      <glyph glyph-name="uni5F20" unicode="&#x5F20;" d="M456 4L716 48L744-28L488-68L456 4M692 612L940 764L960 676L716 524L692 612M92 20L268 20L276 208L72 208L88 512L280 512L280 648L88 648L88 736L384 736L380 428L188 428L180 296L380 296L364-68L92-68L92 20M528 328L436 328L436 416L528 416L528 756L628 756L628 416L940 416L940 328L820 328L956-16L880-68L720 328L628 328L628-4L528-40L528 328Z"  horiz-adv-x="1024" vert-adv-y="1024"  />

      
      <glyph glyph-name="uni603B" unicode="&#x603B;" d="M800 172L880 240L948-8L872-68L800 172M224 172L144 240L76-8L152-68L224 172M572 196L640 276L684 148L616 64L572 196M704 16L704-68L340-68L340 220L440 220L440 16L704 16M200 380L824 380L824 616L200 616L200 380M248 700L228 740L324 776L364 700L664 700L700 776L796 744L776 700L924 700L924 292L100 292L100 700L248 700Z"  horiz-adv-x="1024" vert-adv-y="1024"  />

      
      <glyph glyph-name="uni636E" unicode="&#x636E;" d="M52 268L304 352L324 264L68 180L52 268M68-68L68 20L140 20L140 536L56 536L56 624L140 624L140 752L236 752L236 624L308 624L308 536L236 536L236-68L68-68M660 488L480 488L480 392L660 392L660 488M572 20L836 20L836 104L572 104L572 20M836 660L480 660L480 572L836 572L836 660M936 748L936 488L760 488L760 392L956 392L956 304L760 304L760 192L936 192L936-68L476-68L476 192L660 192L660 304L480 304L480 240L352-32L300 48L380 240L380 748L936 748Z"  horiz-adv-x="1024" vert-adv-y="1024"  />

      
      <glyph glyph-name="uni653B" unicode="&#x653B;" d="M552 360L624 428L960-8L888-68L552 360M556 424L476 496L508 756L592 692L556 424M536 648L536 736L964 736L964 648L936 648L936 476L528-68L464-8L832 492L832 648L536 648M192 92L192 640L68 640L68 724L420 724L420 640L296 640L296 124L412 160L440 76L84-32L60 52L192 92Z"  horiz-adv-x="1024" vert-adv-y="1024"  />

      
      <glyph glyph-name="uni6570" unicode="&#x6570;" d="M492 472L600 384L520 336L412 420L492 472M184 472L76 384L156 336L264 420L184 472M492 612L600 700L520 748L412 664L492 612M672 300L736 372L956 8L896-68L672 300M664 764L744 716L712 380L636 424L664 764M684-68L628 8L832 408L832 648L684 648L684 736L960 736L960 648L932 648L932 412L684-68M184 612L76 700L156 748L264 664L184 612M216 140L604-8L540-68L88 100L188 316L280 280L216 140M388 584L588 584L588 500L388 500L388 344L288 344L288 500L84 500L84 584L288 584L288 740L388 740L388 584M476 164L476 200L84 200L84 280L580 280L580 120L120-68L64-8L476 164Z"  horiz-adv-x="1024" vert-adv-y="1024"  />

      
      <glyph glyph-name="uni65B0" unicode="&#x65B0;" d="M184 88L144 184L68 28L104-68L184 88M184 604L292 512L196 488L88 576L184 604M412 88L456 184L532 28L492-68L412 88M532 640L84 640L84 724L264 724L256 756L360 776L372 724L532 724L532 640M216 20L264 20L264 216L88 216L88 304L264 304L264 376L72 376L72 460L292 460L448 604L532 572L412 460L548 460L548 376L360 376L360 304L528 304L528 216L360 216L360-68L216-68L216 20M576-56L620 156L620 728L932 752L956 676L720 656L720 504L956 504L956 420L912 420L912-68L816-68L816 420L720 420L720 148L676-68L576-56Z"  horiz-adv-x="1024" vert-adv-y="1024"  />

      
      <glyph glyph-name="uni65E5" unicode="&#x65E5;" d="M124 748L904 748L904-68L124-68L124 748M224 304L224 20L804 20L804 304L224 304M224 660L224 392L804 392L804 660L224 660Z"  horiz-adv-x="1024" vert-adv-y="1024"  />

      
      <glyph glyph-name="uni65F6" unicode="&#x65F6;" d="M184 400L336 400L336 648L184 648L184 400M616 476L716 180L648 108L548 404L616 476M336 308L184 308L184 20L336 20L336 308M524 544L524 632L812 632L812 756L912 756L912 632L960 632L960 544L912 544L912-68L688-68L688 20L812 20L812 544L524 544M88-68L88 736L436 736L436-68L88-68Z"  horiz-adv-x="1024" vert-adv-y="1024"  />

      
      <glyph glyph-name="uni661F" unicode="&#x661F;" d="M164 336L232 272L140 176L68 240L164 336M208 600L820 600L820 656L208 656L208 600M820 516L208 516L208 460L820 460L820 516M104 376L104 744L920 744L920 376L568 376L568 304L928 304L928 220L568 220L568 156L912 156L912 72L568 72L568 12L936 12L936-68L92-68L92 12L468 12L468 72L112 72L112 156L468 156L468 220L176 220L176 304L468 304L468 376L104 376Z"  horiz-adv-x="1024" vert-adv-y="1024"  />

      
      <glyph glyph-name="uni6700" unicode="&#x6700;" d="M520 52L548-16L100-68L76 0L520 52M592 72L656 124L952-20L892-72L592 72M420 260L420 304L200 304L200 260L420 260M200 192L200 148L420 148L420 192L200 192M816 624L816 672L208 672L208 624L816 624M208 552L208 504L816 504L816 552L208 552M824 132L824 176L588 176L588 252L920 252L920 100L608-68L548-16L824 132M200-4L108-4L108 304L80 304L80 380L940 380L940 304L516 304L516-68L420-68L420 76L200 76L200-4M912 748L912 432L112 432L112 748L912 748Z"  horiz-adv-x="1024" vert-adv-y="1024"  />

      
      <glyph glyph-name="uni6708" unicode="&#x6708;" d="M68-52L112 136L112 748L912 748L912-68L756-68L760 20L812 20L812 168L208 168L208 120L156-64L68-52M212 260L812 260L812 416L212 416L212 260M212 508L812 508L812 660L212 660L212 508Z"  horiz-adv-x="1024" vert-adv-y="1024"  />

      
      <glyph glyph-name="uni671F" unicode="&#x671F;" d="M280 28L204 80L68-16L144-68L280 28M708 660L832 660L832 504L708 504L708 660M708 416L832 416L832 268L708 268L708 416M832 20L784 20L784-68L932-68L932 748L604 748L604 152L560-56L652-68L708 176L832 176L832 20M328 28L404 80L540-16L464-68L328 28M392 276L220 276L220 196L392 196L392 276M220 364L392 364L392 448L220 448L220 364M220 532L392 532L392 616L220 616L220 532M68 112L68 196L120 196L120 616L76 616L76 704L120 704L120 756L220 756L220 704L392 704L392 756L488 756L488 704L536 704L536 616L488 616L488 196L544 196L544 112L68 112Z"  horiz-adv-x="1024" vert-adv-y="1024"  />

      
      <glyph glyph-name="uni672A" unicode="&#x672A;" d="M100-32L268 316L368 316L184-68L100-32M660 316L760 316L928-32L840-68L660 316M560 308L560-68L464-68L464 308L88 308L88 396L464 396L464 628L128 628L128 716L464 716L464 764L560 764L560 716L896 716L896 628L560 628L560 396L936 396L936 308L560 308Z"  horiz-adv-x="1024" vert-adv-y="1024"  />

      
      <glyph glyph-name="uni6790" unicode="&#x6790;" d="M68-12L112 520L188 464L140-68L68-12M488 576L380 576L380 392L500 312L480 224L380 288L380-68L284-68L284 580L68 580L68 664L284 664L284 760L380 760L380 664L488 664L488 576M956 408L956 492L664 492L664 664L952 680L920 752L564 728L564 152L476-56L568-68L664 144L664 408L824 408L824-68L920-68L920 408L956 408Z"  horiz-adv-x="1024" vert-adv-y="1024"  />

      
      <glyph glyph-name="uni6B21" unicode="&#x6B21;" d="M252 520L164 464L68 712L148 764L252 520M48-24L160 384L252 340L132-68L48-24M624 200L712 240L956-40L868-68L624 200M468 648L468 736L952 736L900 428L828 484L852 648L468 648M448 280L364 328L408 768L492 724L448 280M432-68L336-48L684 320L684 460L784 460L784 296L432-68Z"  horiz-adv-x="1024" vert-adv-y="1024"  />

      
      <glyph glyph-name="uni6B66" unicode="&#x6B66;" d="M892 768L948 660L892 580L836 688L892 768M212-4L112-4L112 376L212 376L212-4M624 80L660 4L92-68L56 4L624 80M104 736L560 736L560 648L104 648L104 736M444 32L344 32L344 404L444 404L444 308L592 308L592 224L444 224L444 32M676 732L768 752L788 184L956-40L868-68L692 160L676 732M80 472L80 560L944 560L944 472L80 472Z"  horiz-adv-x="1024" vert-adv-y="1024"  />

      
      <glyph glyph-name="uni6BD2" unicode="&#x6BD2;" d="M420 228L540 240L604 168L492 156L420 228M420 64L544 76L624-4L508-16L420 64M64 180L956 180L956 104L64 104L64 180M204 12L808 12L816 272L228 272L204 12M84 396L84 476L472 476L472 528L128 528L128 608L472 608L472 656L108 656L108 736L472 736L472 768L568 768L568 736L936 736L936 656L568 656L568 608L892 608L892 528L568 528L568 476L944 476L944 396L84 396M100-68L136 348L916 348L908-68L100-68Z"  horiz-adv-x="1024" vert-adv-y="1024"  />

      
      <glyph glyph-name="uni6C49" unicode="&#x6C49;" d="M88 668L120 760L268 656L232 568L88 668M68 428L104 516L252 412L216 320L68 428M160-68L64-48L164 264L260 240L160-68M452 540L956-28L872-72L368 496L452 540M328-32L840 552L840 652L364 652L364 740L944 740L944 532L412-68L328-32Z"  horiz-adv-x="1024" vert-adv-y="1024"  />

      
      <glyph glyph-name="uni6D1E" unicode="&#x6D1E;" d="M88 668L120 760L268 656L232 568L88 668M68 428L104 516L252 412L216 320L68 428M160-68L64-48L164 264L260 240L160-68M604 292L672 292L672 68L604 68L604 292M484 564L484 480L788 480L788 564L484 564M508-20L768-20L768 380L508 380L508-20M328 744L328-68L428-68L428 660L844 660L844 24L808 24L808-68L940-68L940 744L328 744Z"  horiz-adv-x="1024" vert-adv-y="1024"  />

      
      <glyph glyph-name="uni6E90" unicode="&#x6E90;" d="M88 668L120 760L268 656L232 568L88 668M68 428L104 516L252 412L216 320L68 428M160-68L64-48L164 264L260 240L160-68M600 68L532-68L480 16L544 152L600 68M600 480L836 480L836 424L600 424L600 480M836 276L600 276L600 336L836 336L836 276M836 68L904-68L956 16L892 152L836 68M936 660L936 748L320 748L320 140L260-56L356-68L420 124L420 660L936 660M652 568L500 568L500 192L680 192L680 20L632 20L632-68L780-68L780 192L936 192L936 568L760 568L776 612L676 632L652 568Z"  horiz-adv-x="1024" vert-adv-y="1024"  />

      
      <glyph glyph-name="uni6F0F" unicode="&#x6F0F;" d="M88 668L120 760L232 656L196 568L88 668M68 428L104 516L216 412L180 320L68 428M156-68L64-48L128 264L220 240L156-68M740 36L784 104L828 28L784-40L740 36M524 36L568 104L612 28L568-40L524 36M740 176L784 244L828 168L784 100L740 176M524 176L568 244L612 168L568 100L524 176M852 664L360 664L360 612L852 612L852 664M824 8L848 8L848 268L720 268L720-68L628-68L628 268L504 268L504-68L416-68L416 344L628 344L628 400L416 400L416 480L936 480L936 400L720 400L720 344L936 344L936-68L824-68L824 8M360 88L332-68L240-48L268 108L268 744L948 744L948 532L360 532L360 88Z"  horiz-adv-x="1024" vert-adv-y="1024"  />

      
      <glyph glyph-name="uni7406" unicode="&#x7406;" d="M356 92L368 8L68-68L56 16L356 92M268 436L364 436L364 348L268 348L268 32L168 32L168 348L68 348L68 436L168 436L168 648L68 648L68 736L364 736L364 648L268 648L268 436M624 560L624 656L516 656L516 560L624 560M724 656L724 560L832 560L832 656L724 656M624 372L624 472L516 472L516 372L624 372M724 472L724 372L832 372L832 472L724 472M412 284L412 744L936 744L936 284L724 284L724 196L920 196L920 108L724 108L724 20L956 20L956-68L388-68L388 20L624 20L624 108L432 108L432 196L624 196L624 284L412 284Z"  horiz-adv-x="1024" vert-adv-y="1024"  />

      
      <glyph glyph-name="uni75C5" unicode="&#x75C5;" d="M116 664L144 512L96 380L68 532L116 664M64 256L160 452L160 736L568 736L552 764L652 780L672 736L940 736L940 648L256 648L256 84L152-68L60-40L160 112L160 284L96 152L64 256M840 272L840 20L808 20L808-68L940-68L940 360L688 360L688 464L940 464L940 552L352 552L352 464L592 464L592 360L344 360L344-68L444-68L444 272L592 272L592 180L484 108L536 48L644 116L748 52L800 108L692 180L692 272L840 272Z"  horiz-adv-x="1024" vert-adv-y="1024"  />

      
      <glyph glyph-name="uni767E" unicode="&#x767E;" d="M924 532L924-68L100-68L100 532L412 532L452 660L84 660L84 748L936 748L936 660L560 660L520 532L924 532M828 196L196 196L196 20L828 20L828 196M196 284L828 284L828 448L196 448L196 284Z"  horiz-adv-x="1024" vert-adv-y="1024"  />

      
      <glyph glyph-name="uni79D2" unicode="&#x79D2;" d="M92 656L72 732L396 744L416 672L92 656M68-20L100 400L172 344L140-76L68-20M424 444L336 444L336 292L424 220L404 132L336 184L336-68L244-68L244 444L68 444L68 532L244 532L244 692L336 692L336 532L424 532L424 444M904 704L956 448L884 384L832 644L904 704M576 640L528 248L448 304L500 696L576 640M760 752L760 280L660 280L660 752L760 752M452 8L920 340L940 256L476-76L452 8Z"  horiz-adv-x="1024" vert-adv-y="1024"  />

      
      <glyph glyph-name="uni7AEF" unicode="&#x7AEF;" d="M336 68L380 0L100-68L56 0L336 68M68 680L176 680L160 744L256 760L272 680L360 680L360 596L68 596L68 680M300 12L216 32L264 544L348 516L300 12M144 548L184 116L108 80L68 512L144 548M400 740L496 740L496 668L620 668L620 764L720 764L720 668L840 668L840 740L940 740L940 580L400 580L400 740M784 232L784-40L688-40L688 232L640 232L640-40L544-40L544 232L492 232L492-68L400-68L400 316L604 316L620 408L400 408L400 492L940 492L940 408L720 408L704 316L940 316L940-68L824-68L824 24L840 24L840 232L784 232Z"  horiz-adv-x="1024" vert-adv-y="1024"  />

      
      <glyph glyph-name="uni7BA1" unicode="&#x7BA1;" d="M676 664L796 680L904 616L792 596L676 664M596 604L500 624L596 756L692 736L596 604M588 664L588 736L940 736L940 664L588 664M248 664L368 680L476 616L364 596L248 664M164 596L68 616L168 756L264 736L164 596M160 664L160 736L512 736L512 664L160 664M212 4L212 76L828 76L828 4L212 4M212 344L808 344L808 280L212 280L212 344M944 556L592 556L572 600L456 596L472 556L84 556L84 444L188 444L188 484L848 484L848 444L944 444L944 556M112 416L112-68L920-68L920 148L212 148L212 208L908 208L908 416L112 416Z"  horiz-adv-x="1024" vert-adv-y="1024"  />

      
      <glyph glyph-name="uni7C73" unicode="&#x7C73;" d="M944-36L744 256L652 224L848-68L944-36M80-36L280 256L372 224L176-68L80-36M92 688L176 740L380 576L296 524L92 688M928 688L844 736L640 572L724 524L928 688M564 428L928 428L928 336L564 336L564-68L468-68L468 336L88 336L88 428L468 428L468 764L564 764L564 428Z"  horiz-adv-x="1024" vert-adv-y="1024"  />

      
      <glyph glyph-name="uni7EC8" unicode="&#x7EC8;" d="M64 20L336 124L364 36L92-64L64 20M300 524L300 440L48 440L160 760L248 740L172 524L300 524M48 216L344 608L392 532L220 304L356 304L356 216L48 216M520 496L596 548L960 320L888 268L520 496M600 272L876 200L832 128L556 200L600 272M496 96L960-4L904-72L440 24L496 96M516 536L440 584L464 736L944 736L944 560L492 268L420 320L840 596L840 652L532 652L516 536Z"  horiz-adv-x="1024" vert-adv-y="1024"  />

      
      <glyph glyph-name="uni7EDF" unicode="&#x7EDF;" d="M64 20L360 124L388 36L88-64L64 20M300 524L300 440L48 440L152 760L224 712L164 524L300 524M48 216L372 648L416 568L216 304L384 304L384 216L48 216M432-56L564 316L440 316L536 620L448 620L448 704L668 704L656 756L752 772L772 704L956 704L956 620L632 620L564 400L844 400L816 496L892 560L960 316L844 316L844 24L956 24L956-68L748-68L748 316L660 316L524-68L432-56Z"  horiz-adv-x="1032" vert-adv-y="1024"  />

      
      <glyph glyph-name="uni7F51" unicode="&#x7F51;" d="M724 24L528 536L600 604L796 88L724 24M724 604L792 536L596 24L528 88L724 604M428 24L232 536L304 604L500 88L428 24M428 604L496 536L300 24L232 88L428 604M844 12L844 660L188 660L188-68L88-68L88 748L940 748L940-68L780-68L780 12L844 12Z"  horiz-adv-x="1024" vert-adv-y="1024"  />

      
      <glyph glyph-name="uni8865" unicode="&#x8865;" d="M208 760L296 680L200 648L108 732L208 760M324 196L288 296L392 492L432 408L324 196M164 316L180 416L420 180L396 92L164 316M208 324L208-68L112-68L112 324L208 324M40 256L200 548L68 548L68 632L344 632L132 228L40 256M812 480L860 588L960 324L912 216L812 480M760-68L660-68L660 748L760 748L760-68Z"  horiz-adv-x="1024" vert-adv-y="1024"  />

      
      <glyph glyph-name="uni89D2" unicode="&#x89D2;" d="M140 508L72 572L156 768L224 700L140 508M460 192L460 288L208 288L208 192L460 192M460 372L460 468L208 468L208 372L460 372M556 288L556 192L820 192L820 288L556 288M556 468L556 372L820 372L820 468L556 468M556 104L556-28L460-28L460 104L208 104L160-68L68-56L112 108L112 556L760 556L796 648L136 648L160 736L920 736L860 556L920 556L920-68L780-68L780 20L820 20L820 104L556 104Z"  horiz-adv-x="1024" vert-adv-y="1024"  />

      
      <glyph glyph-name="uni8BA1" unicode="&#x8BA1;" d="M64 20L280 184L300 96L88-68L64 20M148 764L296 612L256 524L108 676L148 764M224 60L124 40L124 400L60 400L60 488L224 488L224 60M376 404L376 492L624 492L624 760L720 760L720 492L956 492L956 404L720 404L720-68L624-68L624 404L376 404Z"  horiz-adv-x="1024" vert-adv-y="1024"  />

      
      <glyph glyph-name="uni9010" unicode="&#x9010;" d="M128 760L268 612L216 532L76 680L128 760M176 28L116-80L52-12L112 108L112 408L68 408L68 492L212 492L212 124L324 20L940 20L940-68L284-68L176 28M812 416L916 608L944 500L840 308L812 416M736 424L772 532L948 196L912 84L736 424M528 84L528 156L612 156L612 248L368 100L292 140L612 352L612 404L372 296L292 344L612 500L612 536L592 552L364 468L292 524L548 620L564 656L324 656L324 744L920 744L920 656L664 656L648 628L704 584L704 84L528 84Z"  horiz-adv-x="1024" vert-adv-y="1024"  />

      
      <glyph glyph-name="uni91CF" unicode="&#x91CF;" d="M84-16L464-16L464 24L104 24L104 80L464 80L464 120L104 120L104 368L920 368L920 120L560 120L560 80L916 80L916 24L560 24L560-16L948-16L948-68L84-68L84-16M920 748L920 504L104 504L104 748L920 748M84 468L948 468L948 408L84 408L84 468M824 560L824 596L200 596L200 560L824 560M824 652L824 688L200 688L200 652L824 652M560 312L560 272L824 272L824 312L560 312M560 216L560 176L824 176L824 216L560 216M464 176L464 216L200 216L200 176L464 176M464 272L464 312L200 312L200 272L464 272Z"  horiz-adv-x="1024" vert-adv-y="1024"  />

      
      <glyph glyph-name="uni9875" unicode="&#x9875;" d="M456 124L456 348L560 348L560 124L956-8L884-68L512 48L136-68L68-8L456 124M208 128L108 128L108 540L448 540L472 648L92 648L92 736L936 736L936 648L576 648L556 540L916 540L916 136L816 136L816 452L208 452L208 128Z"  horiz-adv-x="1024" vert-adv-y="1024"  />

      
      <glyph glyph-name="uni9996" unicode="&#x9996;" d="M340 776L384 700L656 700L704 776L800 752L772 700L948 700L948 620L568 620L540 532L912 532L912-68L112-68L112 532L428 532L460 620L76 620L76 700L268 700L236 752L340 776M816 100L208 100L208 16L816 16L816 100M208 184L816 184L816 272L208 272L208 184M208 360L816 360L816 444L208 444L208 360Z"  horiz-adv-x="1024" vert-adv-y="1024"  />

      

  </font>
</defs>
</svg>
